# xmcd CD database file
#
# Track frame offsets:
#	150
#	12012
#	22984
#	33396
#	42257
#	52683
#	65262
#	76981
#	86106
#	96496
#	107635
#	121045
#	131414
#	154491
#	170680
#	189699
#	203900
#	215058
#	225500
#	232006
#	244709
#	255780
#	265755
#
# Disc length: 3782 seconds
#
# Revision: 0
# Processed by: cddbd v1.5.2PL0 Copyright (c) Steve Scherf et al.
# Submitted via: Feurio! 1.68 - http://www.feurio.com
#
DISCID=2c0ec417
DTITLE=Eric Clapton  - The Early Years
DYEAR=2006
DGENRE=Blues
TTITLE0=Baby What's Wrong - Eric Clapton With The Yardbirds
TTITLE1=Boom Boom - Eric Clapton With The Yardbirds
TTITLE2=Honey In Your Hips - Eric Clapton With The Yardbirds
TTITLE3=Talkin' About You - Eric Clapton With The Yardbirds
TTITLE4=I Wish You Would - Eric Clapton With The Yardbirds
TTITLE5=Good Morning Little Schoolgirl - Eric Clapton With The Yardbirds
TTITLE6=Got To Hurry - Eric Clapton With The Yardbirds
TTITLE7=I Ain't Got You - Eric Clapton With The Yardbirds
TTITLE8=Putty (In Yor Hands) - Eric Clapton With The Yardbirds
TTITLE9=For Your Love - Eric Clapton With The Yardbirds
TTITLE10=Too Much Monkey Business (Live) - Eric Clapton With The Yardbirds
TTITLE11=Let It Rock (Live) - Eric Clapton With The Yardbirds
TTITLE12=Five Long Years (Live) - Eric Clapton With The Yardbirds
TTITLE13=Louise (Live) - Eric Clapton With The Yardbirds
TTITLE14=Take It Easy Baby (With Sonny Boy Williamson II) (Live) - Eric 
TTITLE14=Clapton With The Yardbirds
TTITLE15=Draggin' My Tail - Eric Clapton With The Immediate Allstars
TTITLE16=Snake Drive - Eric Clapton With The Immediate Allstars
TTITLE17=West Coast Idea - Eric Clapton With The Immediate Allstars
TTITLE18=Choker - Eric Clapton With The Immediate Allstars
TTITLE19=Freight Loader - Eric Clapton With The Immediate Allstars
TTITLE20=Miles Road - Eric Clapton With The Immediate Allstars
TTITLE21=I'm Your Witch Doctor - Eric Clapton With John Mayall's Bluesbreakers
TTITLE22=Telephone Blues - Eric Clapton With John Mayall's Bluesbreakers
EXTD=
EXTT0=
EXTT1=
EXTT2=
EXTT3=
EXTT4=
EXTT5=
EXTT6=
EXTT7=
EXTT8=
EXTT9=
EXTT10=
EXTT11=
EXTT12=
EXTT13=
EXTT14=
EXTT15=
EXTT16=
EXTT17=
EXTT18=
EXTT19=
EXTT20=
EXTT21=
EXTT22=
PLAYORDER=
